<svg width="20" height="20" viewBox="0 0 0.6 0.6" xmlns="http://www.w3.org/2000/svg"><path d="M.033.6A.033.027 0 0 1 0 .573V.49a.033.027 0 0 1 .067 0v.082A.033.027 0 0 1 .033.6zm.3-.027V.382a.033.027 0 0 0-.066 0v.19a.033.027 0 0 0 .066 0zm.234-.3A.033.027 0 0 0 .533.3v.273a.033.027 0 0 0 .067 0V.3A.033.027 0 0 0 .567.273zm.012-.27A.033.027 0 0 0 .567 0H.433a.033.027 0 0 0 0 .055h.053L.3.207.19.117a.033.027 0 0 0-.047 0L.01.227a.033.027 0 0 0 .047.038l.11-.09.11.09a.033.027 0 0 0 .047 0l.21-.172v.043a.033.027 0 0 0 .066 0V.027A.033.027 0 0 0 .58.002z"/><path d="M.033.6A.033.027 0 0 1 0 .573V.49a.033.027 0 0 1 .067 0v.082A.033.027 0 0 1 .033.6zm.3-.027V.382a.033.027 0 0 0-.066 0v.19a.033.027 0 0 0 .066 0zm.234-.3A.033.027 0 0 0 .533.3v.273a.033.027 0 0 0 .067 0V.3A.033.027 0 0 0 .567.273zm.012-.27A.033.027 0 0 0 .567 0H.433a.033.027 0 0 0 0 .055h.053L.3.207.19.117a.033.027 0 0 0-.047 0L.01.227a.033.027 0 0 0 .047.038l.11-.09.11.09a.033.027 0 0 0 .047 0l.21-.172v.043a.033.027 0 0 0 .066 0V.027A.033.027 0 0 0 .58.002z" fill="#ffffff"/></svg>